<svg id="Group_1061" data-name="Group 1061" xmlns="http://www.w3.org/2000/svg" xmlns:xlink="http://www.w3.org/1999/xlink" width="288" height="32.946" viewBox="0 0 288 32.946">
  <defs>
    <clipPath id="clip-path">
      <rect id="Rectangle_1565" data-name="Rectangle 1565" width="288" height="32.946" transform="translate(0 0)" fill="#f4f7fc"/>
    </clipPath>
  </defs>
  <g id="Group_971" data-name="Group 971" clip-path="url(#clip-path)">
    <path id="Path_704" data-name="Path 704" d="M248.082,36.025a5.139,5.139,0,0,1-5.143-5.143V19.57a1.021,1.021,0,0,1,.295-.73,1.04,1.04,0,0,1,.736-.295A1.017,1.017,0,0,1,245,19.57V30.882a3.062,3.062,0,0,0,3.087,3.087h6.168a3.094,3.094,0,0,0,3.087-3.087V19.57a1.028,1.028,0,0,1,1.749-.73,1.008,1.008,0,0,1,.307.73V30.882a5.14,5.14,0,0,1-5.143,5.143Z" transform="translate(-148.171 -11.311)" fill="#f4f7fc"/>
    <path id="Path_705" data-name="Path 705" d="M408.538,18.55a.975.975,0,0,1,.724.295.994.994,0,0,1,.308.724.977.977,0,0,1-.308.73.963.963,0,0,1-.724.307h-5.656a.452.452,0,0,0-.513.512V34.992a1.007,1.007,0,0,1-1.031,1.038,1.022,1.022,0,0,1-.724-.295,1.046,1.046,0,0,1-.3-.743V21.118a.448.448,0,0,0-.506-.512h-5.656a1.027,1.027,0,0,1-.743-.307,1.015,1.015,0,0,1-.295-.73,1.007,1.007,0,0,1,1.038-1.019Z" transform="translate(-239.765 -11.314)" fill="#f4f7fc"/>
    <path id="Path_706" data-name="Path 706" d="M448.334,36.025a5.139,5.139,0,0,1-5.143-5.143V19.57a1.021,1.021,0,0,1,.295-.73,1.04,1.04,0,0,1,.736-.295,1.017,1.017,0,0,1,1.025,1.025V30.882a3.062,3.062,0,0,0,3.087,3.087H454.5a3.095,3.095,0,0,0,3.087-3.087V19.57a1.028,1.028,0,0,1,1.749-.73,1.008,1.008,0,0,1,.307.73V30.882a5.14,5.14,0,0,1-5.143,5.143Z" transform="translate(-270.307 -11.311)" fill="#f4f7fc"/>
    <path id="Path_707" data-name="Path 707" d="M354.362,18.55a5.139,5.139,0,0,1,5.143,5.143V35.005a1.021,1.021,0,0,1-.295.73,1.04,1.04,0,0,1-.736.295,1.017,1.017,0,0,1-1.025-1.025V23.693a3.062,3.062,0,0,0-3.087-3.087h-6.168a3.094,3.094,0,0,0-3.087,3.087V35.005a1.028,1.028,0,0,1-1.749.73,1.008,1.008,0,0,1-.307-.73V23.693a5.14,5.14,0,0,1,5.143-5.143Z" transform="translate(-209.23 -11.314)" fill="#f4f7fc"/>
    <path id="Path_708" data-name="Path 708" d="M205.061,34a.359.359,0,0,0-.314-.1,3.7,3.7,0,0,1-.474.032h-6.149a3.061,3.061,0,0,1-3.075-3.081v-7.18a2.931,2.931,0,0,1,.9-2.165,2.97,2.97,0,0,1,2.178-.9h6.149a3.083,3.083,0,0,1,3.081,3.061v7.18a3.412,3.412,0,0,1-.051.583.344.344,0,0,0,.1.327l1.063,1.07a.368.368,0,0,0,.609-.135,5.119,5.119,0,0,0,.327-1.845v-7.18a4.925,4.925,0,0,0-1.5-3.613,4.989,4.989,0,0,0-3.632-1.5h-6.149A5.117,5.117,0,0,0,193,23.665v7.18a5.117,5.117,0,0,0,5.124,5.131h6.149a5.186,5.186,0,0,0,1.742-.288.369.369,0,0,0,.128-.609Z" transform="translate(-117.713 -11.316)" fill="#f4f7fc"/>
    <path id="Path_709" data-name="Path 709" d="M597.035,20.609h14.393a1.031,1.031,0,1,0,0-2.062H597.035a1.031,1.031,0,1,0,0,2.062" transform="translate(-363.51 -11.312)" fill="#f4f7fc"/>
    <path id="Path_710" data-name="Path 710" d="M598.065,43.534V39.344h13.361a1.031,1.031,0,1,0,0-2.062H597.034A1.03,1.03,0,0,0,596,38.313v8.109a1.03,1.03,0,0,0,1.031,1.031h14.393a1.031,1.031,0,1,0,0-2.062H598.065V43.534Z" transform="translate(-363.509 -22.739)" fill="#f4f7fc"/>
    <path id="Path_711" data-name="Path 711" d="M711.535,18.55H697.142a1.031,1.031,0,1,0,0,2.062H710.51v5.246H697.142a1.031,1.031,0,0,0-1.031,1.031V35a1.031,1.031,0,0,0,2.063,0V27.921h13.361a1.031,1.031,0,0,0,1.031-1.031V19.581a1.031,1.031,0,0,0-1.031-1.031" transform="translate(-424.566 -11.314)" fill="#f4f7fc"/>
    <path id="Path_712" data-name="Path 712" d="M205.061,34a.359.359,0,0,0-.314-.1,3.7,3.7,0,0,1-.474.032h-6.149a3.061,3.061,0,0,1-3.075-3.081v-7.18a2.931,2.931,0,0,1,.9-2.165,2.97,2.97,0,0,1,2.178-.9h6.149a3.083,3.083,0,0,1,3.081,3.061v7.18a3.412,3.412,0,0,1-.051.583.344.344,0,0,0,.1.327l1.063,1.07a.368.368,0,0,0,.609-.135,5.119,5.119,0,0,0,.327-1.845v-7.18a4.925,4.925,0,0,0-1.5-3.613,4.989,4.989,0,0,0-3.632-1.5h-6.149A5.117,5.117,0,0,0,193,23.665v7.18a5.117,5.117,0,0,0,5.124,5.131h6.149a5.186,5.186,0,0,0,1.742-.288.369.369,0,0,0,.128-.609Z" transform="translate(-117.713 -11.316)" fill="#f4f7fc"/>
    <path id="Path_713" data-name="Path 713" d="M234.539,61.684a1.025,1.025,0,1,1-1.025-1.025,1.028,1.028,0,0,1,1.025,1.025" transform="translate(-141.798 -36.997)" fill="#f4f7fc"/>
    <path id="Path_714" data-name="Path 714" d="M504.564,18.55a5.139,5.139,0,0,1,5.143,5.143V35.005a1.021,1.021,0,0,1-.295.73,1.04,1.04,0,0,1-.736.295,1.017,1.017,0,0,1-1.025-1.025V23.693a3.062,3.062,0,0,0-3.087-3.087H498.4a3.094,3.094,0,0,0-3.087,3.087V35.005a1.028,1.028,0,0,1-1.749.73,1.009,1.009,0,0,1-.307-.73V23.693A5.14,5.14,0,0,1,498.4,18.55Z" transform="translate(-300.84 -11.314)" fill="#f4f7fc"/>
    <path id="Path_715" data-name="Path 715" d="M513.768,30.113a1.025,1.025,0,1,1-1.025-1.025,1.028,1.028,0,0,1,1.025,1.025" transform="translate(-312.103 -17.741)" fill="#f4f7fc"/>
    <path id="Path_716" data-name="Path 716" d="M561.365,33.96H551.136a3.105,3.105,0,0,1-3.119-3.113V19.58a1.007,1.007,0,0,0-1.025-1.025,1.055,1.055,0,0,0-.749.295,1.032,1.032,0,0,0-.295.73V30.847a5.172,5.172,0,0,0,5.188,5.182h10.229a1.035,1.035,0,1,0,0-2.069" transform="translate(-332.98 -11.317)" fill="#f4f7fc"/>
    <path id="Path_717" data-name="Path 717" d="M662.417,34.563l-1.742-3.67-5.451-11.747a1.032,1.032,0,0,0-1.87,0l-5.4,11.632-1.793,3.785a1.03,1.03,0,1,0,1.87.865l1.473-3.094,4.785-10.306,4.836,10.421,1.422,2.979a1.028,1.028,0,0,0,.935.6,1.049,1.049,0,0,0,.435-.1,1.038,1.038,0,0,0,.5-1.371" transform="translate(-394.041 -11.314)" fill="#f4f7fc"/>
    <path id="Path_718" data-name="Path 718" d="M309.353,34.563l-1.742-3.67L302.16,19.146a1.032,1.032,0,0,0-1.87,0l-5.4,11.632L293.1,34.563a1.03,1.03,0,1,0,1.87.865l1.473-3.094,4.785-10.306,4.836,10.421,1.422,2.979a1.028,1.028,0,0,0,.935.6,1.049,1.049,0,0,0,.435-.1,1.038,1.038,0,0,0,.5-1.371" transform="translate(-178.703 -11.314)" fill="#f4f7fc"/>
    <path id="Path_719" data-name="Path 719" d="M21.513,27.542a.655.655,0,0,0-.559-.185,5.684,5.684,0,0,1-.845.061H9.147a5.462,5.462,0,0,1-5.492-5.494V9.123a5.269,5.269,0,0,1,1.6-3.869,5.348,5.348,0,0,1,3.893-1.6H20.109a5.266,5.266,0,0,1,3.869,1.6A5.229,5.229,0,0,1,25.6,9.123v12.8a5.578,5.578,0,0,1-.1,1.036.664.664,0,0,0,.182.589l1.9,1.9a.661.661,0,0,0,1.086-.236,9.183,9.183,0,0,0,.581-3.29V9.123a8.786,8.786,0,0,0-2.676-6.449A8.866,8.866,0,0,0,20.109,0H9.147A8.823,8.823,0,0,0,2.674,2.675,8.79,8.79,0,0,0,0,9.123v12.8A8.817,8.817,0,0,0,2.674,28.4a8.817,8.817,0,0,0,6.473,2.675H20.109a9.186,9.186,0,0,0,3.1-.515.659.659,0,0,0,.233-1.086Z" transform="translate(0 0)" fill="#f4f7fc"/>
    <path id="Path_720" data-name="Path 720" d="M74.088,76.919a1.827,1.827,0,1,1-1.827-1.827,1.826,1.826,0,0,1,1.827,1.827" transform="translate(-42.958 -45.799)" fill="#f4f7fc"/>
    <path id="Path_721" data-name="Path 721" d="M106.288,27.474H93.615a5.523,5.523,0,0,1-5.551-5.553V1.835A1.814,1.814,0,0,0,86.228,0,1.852,1.852,0,0,0,84.9.532a1.822,1.822,0,0,0-.532,1.3V21.921a9.23,9.23,0,0,0,9.246,9.247h12.673a1.847,1.847,0,1,0,0-3.694" transform="translate(-51.458 -0.001)" fill="#f4f7fc"/>
  </g>
</svg>
